<svg xmlns="http://www.w3.org/2000/svg" width="134.75" height="68.6" viewBox="0 0 134.75 68.6">
  <g id="Group_10482" data-name="Group 10482" transform="translate(-359 -96.842)">
    <g id="Group_1" data-name="Group 1" transform="translate(392.268 96.842)">
      <path id="Path_761" data-name="Path 761" d="M623.53-661.273a5.115,5.115,0,0,0-4.406,7.223,5.461,5.461,0,0,0,5.2,2.859,5.321,5.321,0,0,0,5.01-4.272,5.279,5.279,0,0,0-1.414-4.272,4.257,4.257,0,0,0-2.039-1.322A5.16,5.16,0,0,0,623.53-661.273Z" transform="translate(-593.089 661.316)" fill="#a32c4c"/>
      <path id="Path_763" data-name="Path 763" d="M680.746-584.607c-1.906,1.26-3.494,2.316-3.525,2.346a3.929,3.929,0,0,0,.113.953c.236,1.271,1.352,10.594,1.6,13.3a123.178,123.178,0,0,1,.143,19.979c-.154,1.854-.6,6.065-.717,6.68l-.062.338.389-.164c.225-.092,1.742-.728,3.371-1.424,7.4-3.135,16.578-6.854,22.622-9.18,1.506-.574,2.736-1.086,2.736-1.127s-.1-.092-.225-.123-2.305-.7-4.846-1.5-4.682-1.475-4.775-1.506a5.945,5.945,0,0,0-1.639,1.107c-7.746,6.055-9.918,7.49-13.514,8.955l-1.076.43-.061-.318a1.831,1.831,0,0,0-.2-.563.342.342,0,0,1-.031-.41c.307-.481,9.641-7.285,12.9-9.4,2.971-1.926,8.606-5.348,9.887-5.994.41-.2.441-.246.256-.318-.277-.113-8.576-2.141-8.77-2.141a42.665,42.665,0,0,0-3.084,3.094c-4.3,4.559-9.231,9.365-10.328,10.051l-.307.195v-2.07l.379-.43c.215-.246,1.332-1.455,2.49-2.695a197.683,197.683,0,0,1,14.19-13.842c2.859-2.479,3.084-2.684,3.023-2.725-.031-.021-.676-.215-1.435-.42s-2.613-.758-4.119-1.219-2.787-.8-2.869-.779a7.64,7.64,0,0,0-.8,1.27c-.768,1.424-2.92,5.184-3.822,6.65a52.148,52.148,0,0,1-6.137,8.268l-.9,1v-2.387l1.2-1.906c.656-1.045,3.022-4.744,5.246-8.207s4.57-7.131,5.215-8.145,1.393-2.172,1.66-2.561.512-.779.553-.85c.061-.1-.717-.123-4.088-.1-3.566.031-4.17.051-4.252.184-.061.082-.543,1.516-1.076,3.176-1.455,4.488-1.731,5.287-2.52,7.264-.656,1.65-1.117,2.572-1.291,2.572a49.253,49.253,0,0,1,.369-7.069,74.344,74.344,0,0,1,1.578-9.918,1.562,1.562,0,0,0,.092-.625C684.24-586.9,682.652-585.868,680.746-584.607Z" transform="translate(-645.675 594.527)" fill="#a32c4c"/>
      <path id="Path_764" data-name="Path 764" d="M392.348-585.723c.031.164.246,1.158.471,2.234a64.693,64.693,0,0,1,1.117,6.813,58.388,58.388,0,0,1,.522,6.988c0,1.178-.02,1.322-.174,1.291a2.344,2.344,0,0,1-.574-.85c-.656-1.322-2.982-7.869-3.9-11.014l-.338-1.178-4.231-.031-4.221-.021.143.225c.512.789,5.041,7.838,6.66,10.379.645,1.014,1.967,3.063,2.92,4.559s2.3,3.6,2.981,4.672l1.25,1.947v1.148a4.279,4.279,0,0,1-.082,1.148,37.219,37.219,0,0,1-3.432-3.852,96.276,96.276,0,0,1-7.346-11.947,5.589,5.589,0,0,0-.861-1.352c-.062.02-.922.266-1.906.553-1.855.543-6.486,1.957-6.527,2-.021.01.522.461,1.188,1,1.762,1.424,5.4,4.652,7.541,6.69,2.777,2.643,7.572,7.572,10.481,10.779l.943,1.045v1.035a2.513,2.513,0,0,1-.092.994c-.164-.051-2.551-2.223-4.57-4.139-1.066-1.025-3.514-3.5-5.43-5.512s-3.576-3.678-3.7-3.709c-.184-.051-8.074,1.844-8.75,2.09-.195.072-.164.113.307.369a6.987,6.987,0,0,1,.984.676,18.153,18.153,0,0,0,1.967,1.291A169.259,169.259,0,0,1,392.02-548.47l3.35,2.479v.686l.01.686-.686-.236a25.246,25.246,0,0,1-5.41-2.807c-1.025-.676-5.912-4.313-8.4-6.26a11.345,11.345,0,0,0-1.557-1.1,13.782,13.782,0,0,0-2.51.666c-1.26.389-2.971.922-3.822,1.188-1.588.482-3.525,1.127-3.6,1.209-.021.021.963.42,2.182.891,5.246,2,16.076,6.414,24.313,9.918,1.691.717,2.418.984,2.438.881a14.409,14.409,0,0,0-.174-1.6,81.471,81.471,0,0,1-.871-13.965,100.933,100.933,0,0,1,.707-13.985c.389-3.5,1.209-9.57,1.445-10.686a7.713,7.713,0,0,0,.143-.85c0-.072-.266-.277-.594-.441s-1.23-.727-2.018-1.25c-2.223-1.465-4.549-2.961-4.621-2.961C392.317-586,392.317-585.877,392.348-585.723Z" transform="translate(-369.397 593.717)" fill="#a32c4c"/>
    </g>
    <g id="Group_2" data-name="Group 2" transform="translate(359 146.617)">
      <path id="Path_340" data-name="Path 340" d="M1250.811-516.713a4.327,4.327,0,0,0-3.4,4.775,4.4,4.4,0,0,0,2.418,3.391,4.352,4.352,0,0,0,5.041-.748,4.486,4.486,0,0,0-2.3-7.449A3.554,3.554,0,0,0,1250.811-516.713Zm2.715,1.025a3.217,3.217,0,0,1,1.67,1.783,2.863,2.863,0,0,1,.277,1.455,2.738,2.738,0,0,1-.328,1.557,4.037,4.037,0,0,1-1.854,1.906,2.866,2.866,0,0,1-1.557.277,2.747,2.747,0,0,1-1.537-.277,3.875,3.875,0,0,1-1.783-1.813,2.871,2.871,0,0,1-.318-1.6,2.648,2.648,0,0,1,.338-1.609,3.913,3.913,0,0,1,2.449-2.029,5.366,5.366,0,0,1,1.148-.051A3.207,3.207,0,0,1,1253.526-515.689Z" transform="translate(-1121.357 516.84)" fill="#a32c4c"/>
      <path id="Path_341" data-name="Path 341" d="M1272.071-496.313c-.072.072-.061,3.934.01,4.3.051.266.113.318.359.318h.287l.031-.953.031-.943.328-.031c.615-.061,1.158.389,1.814,1.537.256.43.328.492.635.492.195,0,.348-.031.348-.062a10.684,10.684,0,0,0-1.3-1.783,1.232,1.232,0,0,1-.236-.225.94.94,0,0,1,.389-.164,1.071,1.071,0,0,0,.83-.861,1.26,1.26,0,0,0-.338-1.2,1.621,1.621,0,0,0-1-.318A11.385,11.385,0,0,0,1272.071-496.313Zm2.6.7a1.037,1.037,0,0,1,.277.512.526.526,0,0,1-.184.574c-.195.195-.4.256-1.035.318a3.529,3.529,0,0,1-.891.01,1.921,1.921,0,0,1-.1-.83v-.758h.861C1274.264-495.79,1274.5-495.75,1274.674-495.616Z" transform="translate(-1143.488 498.438)" fill="#a32c4c"/>
      <path id="Path_342" data-name="Path 342" d="M203.738-461.662c0,.318-2.572,7.479-3.627,10.123-.584,1.434-.85,1.742-1.6,1.814-.461.041-.512.072-.512.287v.246h2.357c2.223,0,2.356-.01,2.356-.195,0-.154-.113-.195-.625-.256-.789-.082-1.127-.236-1.311-.615-.123-.266-.1-.41.338-1.742a14.221,14.221,0,0,1,.676-1.783l.2-.328,2.275.021,2.275.031.389.973c.215.533.512,1.352.656,1.814.256.8.256.861.1,1.107-.174.266-.3.318-1.209.41-.492.051-.594.1-.594.266,0,.184.1.195,2.92.195,2.787,0,2.92-.01,2.92-.195,0-.154-.1-.195-.471-.246-.85-.092-1.014-.359-2.141-3.453-.543-1.5-1.148-3.166-1.342-3.709-.266-.779-1.4-3.811-1.834-4.928-.061-.154-.215-.174-1.137-.174h-1.066Zm1.107,2.961a29.141,29.141,0,0,1,1.332,3.719,19.067,19.067,0,0,1-1.957.031l-1.9-.031.758-2.049c.41-1.127.83-2.244.922-2.49s.195-.43.246-.43A7.45,7.45,0,0,1,204.844-458.7Z" transform="translate(-179.507 467.619)" fill="#a32c4c"/>
      <path id="Path_343" data-name="Path 343" d="M943.463-460.749c0,.256.184.328.84.328a.9.9,0,0,1,.8.287l.287.287.072,2.459a24.315,24.315,0,0,1-.215,5.666,3.761,3.761,0,0,1-2.029,2.039,5.645,5.645,0,0,1-2.93.359,4,4,0,0,1-2.664-1.219c-.85-.943-.871-1.045-.871-5.4v-3.781l.338-.3a1.142,1.142,0,0,1,1.076-.3c.215.01.277-.031.277-.195,0-.215-.031-.215-2.776-.215H932.9l.031.225c.031.2.1.236.563.266a.861.861,0,0,1,.779.318c.246.3.246.3.318,3.883.041,1.977.113,3.873.174,4.231.369,2.285,2.213,3.606,5.246,3.75,2.459.123,4.139-.43,5.379-1.752,1.076-1.158,1.076-1.178,1.148-5.7.061-4.365.041-4.3.84-4.518.246-.061.553-.154.7-.195a.385.385,0,0,0,.287-.236c.031-.154-.082-.174-.922-.174a31.775,31.775,0,0,1-3.483-.266C943.5-460.954,943.463-460.944,943.463-460.749Z" transform="translate(-839.111 466.655)" fill="#a32c4c"/>
      <path id="Path_344" data-name="Path 344" d="M501.167-458.744c0,.225.041.256.359.256a1.4,1.4,0,0,1,1.25.635c.154.287.184.645.215,2.408l.031,2.08h-7.305l.041-2.08c.041-2.664.133-2.869,1.311-3.012.41-.051.512-.1.512-.246,0-.184-.143-.195-2.981-.195h-2.971l.031.225c.02.184.113.246.441.3a1.181,1.181,0,0,1,1.045.635c.164.3.184.738.184,5.092,0,4.611-.01,4.775-.2,5.123-.184.307-.307.379-.871.523-.369.092-.666.215-.656.287s.021.154.031.215a16.484,16.484,0,0,0,2.838.1h2.818l-.031-.225c-.02-.195-.113-.246-.5-.3-1.158-.174-1.219-.318-1.219-3.166v-2.254h7.274v2.275a10.6,10.6,0,0,1-.133,2.541,1.735,1.735,0,0,1-1.219.666c-.3.051-.389.113-.389.256,0,.195.092.2,2.869.2s2.869-.01,2.869-.2c0-.133-.092-.215-.277-.266a1.848,1.848,0,0,1-1.2-.584c-.2-.277-.215-.441-.246-2.613-.021-1.281-.01-3.545.031-5.031l.072-2.715.277-.277a1.313,1.313,0,0,1,.861-.348c.523-.072.584-.1.584-.318V-459h-5.738Z" transform="translate(-443.023 464.926)" fill="#a32c4c"/>
      <path id="Path_345" data-name="Path 345" d="M652-457.805c0,.215.4.523.687.523a.67.67,0,0,1,.348.133c.43.328.451.482.512,4.529.061,4.2.082,4.354.666,5.3.758,1.209,2.418,1.988,4.508,2.1,3.156.184,5.461-.943,6.322-3.063.2-.512.225-.779.277-4.334.082-4.7.061-4.652,1.435-4.846.41-.051.574-.123.594-.256.031-.164-.143-.174-2.387-.174s-2.418.01-2.387.174c.021.143.174.195.645.246.779.072.943.144,1.158.543.154.277.174.707.205,3.186.041,3.309-.061,4.559-.451,5.348-.615,1.27-2.039,1.977-4.037,1.977a4.043,4.043,0,0,1-3.873-2l-.277-.512v-3.945c0-3.678.01-3.965.195-4.221a1.634,1.634,0,0,1,1.24-.512c.195-.021.318-.092.338-.215.031-.164-.154-.174-2.838-.174C652.123-458,652-457.99,652-457.805Z" transform="translate(-586.991 464.029)" fill="#a32c4c"/>
      <path id="Path_346" data-name="Path 346" d="M1092.138-457.775c.021.164.143.256.451.348a2.13,2.13,0,0,1,1.168.645c.164.307.133,9.928-.031,10.256a1.473,1.473,0,0,1-1.168.615c-.266,0-.338.041-.338.2,0,.195.072.2,2.356.2s2.357-.01,2.357-.2c0-.174-.072-.2-.41-.2a1.653,1.653,0,0,1-1.383-.625c-.133-.236-.154-1.035-.154-4.713v-4.426l.8.861c.431.471,2.193,2.336,3.914,4.139s3.565,3.75,4.1,4.314l.973,1.045.543.01.533.01v-5.533c0-6.076,0-6.086.6-6.393a1.768,1.768,0,0,1,.727-.164c.338,0,.41-.031.41-.2,0-.195-.072-.2-2.356-.2s-2.357.01-2.357.2.072.2.625.2c.727,0,.953.1,1.168.512.133.246.154.932.154,4.3,0,2.193-.041,4-.082,4-.113,0-1.834-1.762-4.016-4.1-3.648-3.9-4.713-5-5.062-5.164a5.142,5.142,0,0,0-1.957-.164C1092.108-458,1092.108-458,1092.138-457.775Z" transform="translate(-982.028 464.029)" fill="#a32c4c"/>
      <path id="Path_347" data-name="Path 347" d="M340.332-456.743a5.4,5.4,0,0,0-1.383.143c-.174.174.246.4.748.4.656,0,.984.359,1.147,1.281a80.14,80.14,0,0,1-.092,9.354c-.164.41-.5.594-1.27.686q-.937.123-.4.522a53.283,53.283,0,0,0,7.449.031c2.479-.307,3.893-.973,5.1-2.428a5.926,5.926,0,0,0,1.414-4.016,5.7,5.7,0,0,0-2.244-4.785,9.445,9.445,0,0,0-3.33-1.147C346.736-456.8,343.57-456.825,340.332-456.743Zm6.055.277a4.647,4.647,0,0,1,2.367.973,5.814,5.814,0,0,1,2.029,4.856,5.7,5.7,0,0,1-1.6,4.252,4.7,4.7,0,0,1-1.219.9,8.3,8.3,0,0,1-3.4.533c-1.178-.031-1.322-.1-1.465-.758-.051-.215-.1-2.736-.1-5.594,0-4.057.031-5.195.133-5.235A14.948,14.948,0,0,1,346.387-456.466Z" transform="translate(-305.958 462.946)" fill="#a32c4c"/>
      <path id="Path_348" data-name="Path 348" d="M807.26-456.794c-1.178.031-1.26.051-1.26.236s.072.2.615.2c.727,0,1.127.174,1.342.584a88.924,88.924,0,0,1,.082,10.194c-.164.389-.5.553-1.342.646-.594.061-.7.092-.7.266s.123.195,3.627.195c3.965,0,4.887-.092,5.973-.563a4.289,4.289,0,0,0,1.854-1.742,2.391,2.391,0,0,0,.277-1.486,2.323,2.323,0,0,0-.809-2.131,7.6,7.6,0,0,0-1.855-1.107c-.389-.092-.195-.246.318-.246a1.042,1.042,0,0,0,.871-.379,2.3,2.3,0,0,0,.85-1.885,1.812,1.812,0,0,0-.277-1.137,2.6,2.6,0,0,0-1.537-1.178C814.012-456.845,812.629-456.927,807.26-456.794Zm6.137.471a2.34,2.34,0,0,1,1.312,1.629,2.109,2.109,0,0,1-1.475,2.756,11.484,11.484,0,0,1-2.828.041,11.47,11.47,0,0,1-.1-2.316c0-2.654-.123-2.459,1.486-2.418A3.043,3.043,0,0,1,813.4-456.323Zm-.225,5.287a2.9,2.9,0,0,1,2.264,2.182,3.9,3.9,0,0,1-.318,2.326,2.876,2.876,0,0,1-2.828,1.414,1.777,1.777,0,0,1-1.619-.85c-.195-.369-.215-.615-.246-2.9l-.041-2.5,1.065.061A8.707,8.707,0,0,1,813.172-451.036Z" transform="translate(-725.213 462.997)" fill="#a32c4c"/>
      <path id="Path_349" data-name="Path 349" d="M18.494-455.775c.02.195.1.246.461.266.676.051.748.225.748,1.824,0,1.578-.461,8.125-.615,8.658a1.347,1.347,0,0,1-1.086.953c-.307.082-.5.184-.5.277,0,.123.359.143,2.131.174l2.121.021v-.246c0-.2-.061-.246-.42-.307a1.33,1.33,0,0,1-1.1-.625,53.589,53.589,0,0,1,.348-8.422l.061-.748.287.2a7.4,7.4,0,0,1,1.137,2.111c.471,1.055,1.486,3.279,2.254,4.949l1.393,3.033H26.4l.789-1.742c1.281-2.848,3.494-7.869,3.606-8.176.051-.164.133-.256.174-.2a78.948,78.948,0,0,1,.656,8.094c0,.748-.031.881-.246,1.107a2.383,2.383,0,0,1-.861.451c-.369.113-.625.246-.625.328,0,.123.5.143,2.818.143,2.582,0,2.818-.01,2.848-.174.031-.184-.031-.2-.83-.338-.533-.082-.686-.369-.85-1.66-.246-1.947-.768-8.678-.707-9.047.092-.512.318-.717.789-.717.318,0,.389-.031.389-.2,0-.195-.072-.2-1.8-.2H30.758l-.246.533c-.133.3-1.055,2.387-2.049,4.641s-1.834,4.119-1.854,4.139a.066.066,0,0,1-.092-.01c-.031-.031-1.014-2.1-2.172-4.6s-2.162-4.58-2.223-4.621A12.824,12.824,0,0,0,20.236-456H18.463Z" transform="translate(-17.5 462.234)" fill="#a32c4c"/>
    </g>
  </g>
</svg>
